# xmcd CD database file
#
# Track frame offsets:
#	150
#	10692
#	23750
#	40387
#	55972
#	74072
#	84317
#	99855
#	113187
#	129737
#
# Disc length: 1879 seconds
#
# Revision: 2
# Processed by: cddbd v1.5.2PL0 Copyright (c) Steve Scherf et al.
# Submitted via: CDex 1.60beta1
#
DISCID=7e07550a
DTITLE=Stacy Dean Campbell - Hurt City
DYEAR=1995
DGENRE=Country
TTITLE0=Eight Feet High
TTITLE1=Why You Been Gone So Long
TTITLE2=I Can Dream
TTITLE3=Midnight Angel
TTITLE4=Hurt City
TTITLE5=Pop a Top
TTITLE6=Sometimes She Forgets
TTITLE7=Honey I Do
TTITLE8=Mind Over Matter
TTITLE9=There's The Door
EXTD=YEAR: 1995
EXTT0=
EXTT1=
EXTT2=
EXTT3=
EXTT4=
EXTT5=
EXTT6=
EXTT7=
EXTT8=
EXTT9=
PLAYORDER=
